<svg width="16" height="16" viewBox="0 0 16 16" fill="none" xmlns="http://www.w3.org/2000/svg">
<path d="M10.3277 14.5689C12.088 13.9433 13.4986 12.6718 14.2996 10.9886C15.1006 9.30538 15.1961 7.41191 14.5686 5.65706C13.9411 3.90221 12.6656 2.49595 10.9772 1.69742C9.2888 0.898933 7.38952 0.803694 5.62921 1.42925C5.48105 1.48191 5.40388 1.64438 5.45661 1.792C5.50943 1.9397 5.6723 2.01673 5.82047 1.96407C7.43746 1.38937 9.18216 1.47685 10.7331 2.21038C12.2841 2.9439 13.4558 4.23566 14.0322 5.84768C14.6086 7.45969 14.5208 9.19907 13.7851 10.7452C13.0493 12.2915 11.7535 13.4595 10.1365 14.0342C8.51955 14.6088 6.77485 14.5213 5.22387 13.7878C3.67289 13.0543 2.50125 11.7625 1.92483 10.1505C1.27878 8.34372 1.4743 6.36168 2.46129 4.71271C2.54192 4.57796 2.49774 4.40381 2.36267 4.32347C2.22761 4.24314 2.05282 4.28714 1.97224 4.42179C1.31504 5.51976 0.98022 6.75313 0.980267 7.99579C0.980267 8.78467 1.11528 9.57743 1.38836 10.3411C2.0159 12.096 3.29133 13.5022 4.97975 14.3007C6.66821 15.0993 8.56748 15.1945 10.3277 14.5689Z" fill="white" stroke="#02BEE8"/>
<path d="M7.97892 11.1213C8.13615 11.1213 8.26367 10.9942 8.26367 10.8375L8.26367 3.76764C8.26367 3.61084 8.13615 3.48376 7.97892 3.48376C7.8217 3.48376 7.69418 3.61084 7.69418 3.76764L7.69418 10.8375C7.69418 10.9942 7.82169 11.1213 7.97892 11.1213Z" fill="white" stroke="#02BEE8"/>
<path d="M4.76621 8.6187C4.65501 8.5078 4.47472 8.5078 4.36353 8.6187C4.30795 8.6741 4.28014 8.74677 4.28014 8.81939C4.28014 8.89202 4.30795 8.96469 4.36353 9.02009L7.54322 12.19C7.65441 12.3009 7.8347 12.3009 7.9459 12.19L11.1256 9.02009C11.2368 8.90929 11.2368 8.72945 11.1256 8.6187C11.0144 8.5078 10.8341 8.5078 10.7229 8.6187L7.74458 11.5879L4.76621 8.6187Z" fill="white" stroke="#02BEE8"/>
</svg>
