<svg width="16" height="16" viewBox="0 0 16 16" fill="none" xmlns="http://www.w3.org/2000/svg">
<path d="M10.3922 14.5892C12.1525 13.9617 13.563 12.6863 14.364 10.9978C15.1651 9.30947 15.2606 7.41015 14.6331 5.64988C14.0055 3.88962 12.7301 2.47902 11.0417 1.67802C9.35325 0.877073 7.45398 0.78154 5.69366 1.40903C5.5455 1.46185 5.46833 1.62482 5.52106 1.77289C5.57388 1.92106 5.73676 1.99832 5.88492 1.9455C7.50191 1.36902 9.24661 1.45677 10.7976 2.19256C12.3486 2.92835 13.5202 4.2241 14.0966 5.84109C14.6731 7.45808 14.5853 9.20283 13.8495 10.7538C13.1137 12.3048 11.818 13.4764 10.201 14.0529C8.584 14.6293 6.8393 14.5415 5.28832 13.8057C3.73735 13.07 2.5657 11.7742 1.98928 10.1572C1.34323 8.34484 1.53876 6.35668 2.52574 4.70262C2.60637 4.56746 2.56219 4.39277 2.42713 4.31218C2.29206 4.2316 2.11727 4.27573 2.03669 4.4108C1.37949 5.51216 1.04467 6.74934 1.04472 7.99583C1.04472 8.78715 1.17974 9.58235 1.45281 10.3484C2.08035 12.1087 3.35578 13.5192 5.0442 14.3202C6.73266 15.1212 8.63193 15.2168 10.3922 14.5892Z" fill="white" stroke="#6B7BB3"/>
<path d="M8.04338 11.1314C8.2006 11.1314 8.32812 11.0039 8.32812 10.8466L8.32812 3.75496C8.32812 3.59769 8.20061 3.47021 8.04338 3.47021C7.88615 3.47021 7.75863 3.59769 7.75863 3.75496L7.75863 10.8466C7.75863 11.0039 7.88615 11.1314 8.04338 11.1314Z" fill="white" stroke="#6B7BB3"/>
<path d="M4.83066 8.62066C4.71947 8.50942 4.53917 8.50942 4.42798 8.62066C4.37241 8.67624 4.3446 8.74913 4.3446 8.82198C4.3446 8.89483 4.37241 8.96772 4.42798 9.0233L7.60767 12.203C7.71886 12.3142 7.89916 12.3142 8.01035 12.203L11.19 9.0233C11.3012 8.91215 11.3012 8.73176 11.19 8.62066C11.0788 8.50942 10.8986 8.50942 10.7874 8.62066L7.80903 11.599L4.83066 8.62066Z" fill="white" stroke="#6B7BB3"/>
</svg>
