<svg width="14" height="24" viewBox="0 0 14 24" fill="none" xmlns="http://www.w3.org/2000/svg">
<path d="M8.76977 24H4.5758C4.25901 24 4.00192 23.7429 4.00192 23.4261V13.5759H1.06704C0.750255 13.5759 0.493164 13.3188 0.493164 13.002V8.94003C0.493164 8.62324 0.750255 8.36615 1.06704 8.36615H4.00192V5.94549C4.00189 2.27718 6.22286 0 9.79931 0C11.397 0 12.6837 0.122818 13.0085 0.166424C13.2943 0.204303 13.5066 0.447636 13.5066 0.735727V4.3673C13.5066 4.68409 13.2495 4.94118 12.9327 4.94118L10.7841 4.94348C9.54334 4.94348 9.34362 5.35667 9.34362 6.34721V8.3673H12.7927C12.9579 8.3673 13.1152 8.43845 13.2231 8.56242C13.3321 8.68524 13.3826 8.85052 13.362 9.01464L12.8386 13.0766C12.8019 13.3635 12.5574 13.5782 12.2693 13.5782H9.34362V23.4284C9.34365 23.7441 9.08656 24 8.76977 24ZM5.14968 22.8522H8.19586V13.002C8.19586 12.6852 8.45295 12.4281 8.76974 12.4281H11.7643L12.1408 9.51391H8.76977C8.45298 9.51391 8.19589 9.25682 8.19589 8.94003V6.34606C8.19589 5.25109 8.46446 3.79455 10.7841 3.79455L12.36 3.79339V1.25336C11.7735 1.20285 10.8312 1.14776 9.79934 1.14776C6.88743 1.14776 5.14971 2.94061 5.14971 5.94545V8.94C5.14971 9.25679 4.89262 9.51388 4.57583 9.51388H1.64095V12.4281H4.57583C4.89262 12.4281 5.14971 12.6852 5.14971 13.002V22.8522H5.14968Z" fill="#43587B"/>
</svg>
