<svg width="24" height="24" viewBox="0 0 24 24" fill="none" xmlns="http://www.w3.org/2000/svg">
<path d="M17.8715 24H6.12847C2.74935 24 0 21.2499 0 17.8708V6.12769C0 2.74858 2.74935 0 6.12847 0H17.8715C21.2507 0 24 2.74858 24 6.12769V17.8708C24 21.2499 21.2507 24 17.8715 24ZM6.12847 1.37081C3.50507 1.37081 1.37158 3.5043 1.37158 6.12692V17.87C1.37158 20.4934 3.50584 22.6269 6.12847 22.6269H17.8715C20.4949 22.6269 22.6276 20.4926 22.6276 17.87V6.12769C22.6276 3.5043 20.4942 1.37158 17.8715 1.37158H6.12847V1.37081Z" fill="#43587B"/>
<path d="M23.3138 9.00529H14.861C14.4823 9.00529 14.1748 8.69775 14.1748 8.31911C14.1748 7.94048 14.4816 7.63293 14.861 7.63293H23.313C23.6917 7.63293 23.9992 7.93971 23.9992 8.31911C24 8.69775 23.6924 9.00529 23.3138 9.00529Z" fill="#43587B"/>
<path d="M8.96127 9.00525H0.685405C0.306771 9.00525 0 8.69771 0 8.31984C0 7.94121 0.306771 7.63367 0.685405 7.63367H8.96127C9.3399 7.63367 9.64745 7.94044 9.64745 8.31984C9.64667 8.69771 9.3399 9.00525 8.96127 9.00525Z" fill="#43587B"/>
<path d="M11.9997 17.3477C9.05096 17.3477 6.65088 14.9492 6.65088 11.9997C6.65088 9.05018 9.05018 6.65088 11.9997 6.65088C14.9484 6.65088 17.3477 9.04941 17.3477 11.9997C17.3477 14.9492 14.9491 17.3477 11.9997 17.3477ZM11.9997 8.02246C9.80668 8.02246 8.02169 9.80745 8.02169 12.0004C8.02169 14.1934 9.80668 15.9769 11.9997 15.9769C14.1927 15.9769 15.9761 14.1934 15.9761 12.0004C15.9761 9.80745 14.1927 8.02246 11.9997 8.02246Z" fill="#43587B"/>
<path d="M19.7487 7.23343H16.6632C16.2846 7.23343 15.9771 6.92666 15.9771 6.54803V3.46177C15.9771 3.08314 16.2846 2.77637 16.6632 2.77637H19.7487C20.1273 2.77637 20.4341 3.08314 20.4341 3.46177V6.54803C20.4333 6.92743 20.1273 7.23343 19.7487 7.23343ZM17.3479 5.86185H19.0625V4.14795H17.3479V5.86185Z" fill="#43587B"/>
</svg>
