<svg width="16" height="16" viewBox="0 0 16 16" fill="none" xmlns="http://www.w3.org/2000/svg">
<path d="M1.40992 10.3475C2.03746 12.1078 3.31289 13.5183 5.00131 14.3193C6.68968 15.1204 8.589 15.2159 10.3493 14.5884C12.1095 13.9608 13.5201 12.6854 14.3211 10.997C15.1221 9.30857 15.2176 7.4093 14.5901 5.64899C14.5373 5.50082 14.3743 5.42366 14.2263 5.47638C14.0781 5.5292 14.0008 5.69208 14.0536 5.84024C14.6301 7.45723 14.5424 9.20193 13.8066 10.7529C13.0708 12.3039 11.775 13.4755 10.1581 14.052C8.54106 14.6284 6.79631 14.5406 5.24539 13.8048C3.69436 13.0691 2.52276 11.7733 1.94629 10.1563C1.36987 8.53932 1.45762 6.79462 2.19341 5.24365C2.9292 3.69267 4.22494 2.52103 5.84193 1.9446C7.65431 1.29855 9.64247 1.49408 11.2965 2.48107C11.4317 2.5617 11.6064 2.51751 11.687 2.38245C11.7675 2.24738 11.7234 2.07259 11.5883 1.99201C10.487 1.33481 9.2498 0.999995 8.00332 1.00004C7.212 1.00004 6.41679 1.13506 5.65073 1.40813C3.89041 2.03567 2.47991 3.31111 1.67891 4.99952C0.877916 6.68798 0.782384 8.58726 1.40992 10.3475Z" fill="white" stroke="white"/>
<path d="M4.86814 7.9987C4.86814 8.15593 4.99566 8.28345 5.15289 8.28345L12.2445 8.28345C12.4018 8.28345 12.5293 8.15593 12.5293 7.9987C12.5293 7.84147 12.4018 7.71395 12.2445 7.71395L5.15289 7.71395C4.99566 7.71395 4.86814 7.84147 4.86814 7.9987Z" fill="white" stroke="white"/>
<path d="M7.37946 4.78659C7.4907 4.6754 7.4907 4.49511 7.37946 4.38391C7.32389 4.32834 7.25099 4.30053 7.17814 4.30053C7.1053 4.30053 7.0324 4.32834 6.97683 4.38391L3.79714 7.5636C3.68589 7.6748 3.68589 7.85509 3.79714 7.96628L6.97683 11.146C7.08797 11.2572 7.26836 11.2572 7.37946 11.146C7.4907 11.0348 7.4907 10.8545 7.37946 10.7433L4.40113 7.76497L7.37946 4.78659Z" fill="white" stroke="white"/>
</svg>
