<svg width="34" height="34" viewBox="0 0 34 34" fill="none" xmlns="http://www.w3.org/2000/svg">
<path d="M27.5279 23.5825C27.393 23.5825 27.2582 23.5332 27.1529 23.4334L20.8445 17.5153C20.6242 17.3092 20.6132 16.9616 20.8204 16.7413C21.0276 16.5187 21.373 16.5088 21.5955 16.7171L27.9039 22.6352C28.1243 22.8414 28.1353 23.1889 27.9281 23.4093C27.8195 23.5244 27.6748 23.5825 27.5279 23.5825Z" fill="#43587B"/>
<path d="M6.47059 23.5823C6.32478 23.5823 6.17896 23.5242 6.07043 23.4091C5.86322 23.1887 5.87418 22.8412 6.09455 22.6351L12.4051 16.717C12.6266 16.5109 12.9741 16.5197 13.1803 16.7411C13.3875 16.9615 13.3765 17.309 13.1561 17.5151L6.84555 23.4332C6.7403 23.533 6.60544 23.5823 6.47059 23.5823Z" fill="#43587B"/>
<path d="M31.2591 29.085H2.74087C1.2301 29.085 0 27.856 0 26.3442V7.65469C0 6.14283 1.2301 4.91382 2.74087 4.91382H31.2591C32.7699 4.91382 34 6.14283 34 7.65469V26.3442C34 27.856 32.7699 29.085 31.2591 29.085ZM2.74087 6.01017C1.83419 6.01017 1.09635 6.74801 1.09635 7.65469V26.3442C1.09635 27.2508 1.83419 27.9887 2.74087 27.9887H31.2591C32.1658 27.9887 32.9037 27.2508 32.9037 26.3442V7.65469C32.9037 6.74801 32.1658 6.01017 31.2591 6.01017H2.74087Z" fill="#43587B"/>
<path d="M17.0008 19.754C16.2717 19.754 15.5427 19.5117 14.9879 19.0282L0.910777 6.74799C0.682736 6.54955 0.658617 6.2031 0.857056 5.97397C1.05769 5.74592 1.40304 5.72509 1.63108 5.92134L15.7082 18.2005C16.4088 18.8111 17.5928 18.8111 18.2923 18.2005L32.3519 5.94107C32.5788 5.74264 32.9242 5.76456 33.1259 5.9937C33.3244 6.22284 33.3013 6.56819 33.0733 6.76772L19.0137 19.0271C18.4579 19.5117 17.7299 19.754 17.0008 19.754Z" fill="#43587B"/>
</svg>
