<svg width="72" height="72" viewBox="0 0 72 72" fill="none" xmlns="http://www.w3.org/2000/svg">
<path d="M66.4045 28.3657C67.7083 27.0949 68.1685 25.2298 67.606 23.4983C67.0434 21.7668 65.5747 20.5286 63.773 20.2669L48.0188 17.9776C47.7095 17.9328 47.4422 17.7386 47.3038 17.4582L40.2584 3.18261C39.4528 1.54995 37.8212 0.535767 36.0005 0.535767C34.1799 0.535767 32.5483 1.54995 31.7427 3.18261L24.6973 17.4583C24.5587 17.7386 24.2915 17.9328 23.9822 17.9778L8.22823 20.2669C6.42655 20.5286 4.958 21.7668 4.39522 23.4983C3.83244 25.2298 4.29284 27.0949 5.59672 28.3657L16.9965 39.4778C17.2202 39.696 17.3225 40.0103 17.2696 40.3184L14.5784 56.0088C14.2708 57.8033 14.9944 59.5827 16.4673 60.6528C17.9402 61.7233 19.8567 61.8615 21.4679 61.0145L35.5587 53.6065C35.8355 53.461 36.1658 53.461 36.4427 53.6065L50.5336 61.0145C51.2345 61.3829 51.9928 61.565 52.7476 61.5649C53.7277 61.5649 54.7017 61.2578 55.5338 60.6527C57.0067 59.5824 57.7305 57.8029 57.4227 56.0087L54.7315 40.3183C54.6788 40.0102 54.7809 39.6959 55.0046 39.4776L66.4045 28.3657ZM50.9879 40.9607L53.6791 56.6513C53.7691 57.1764 53.4449 57.4758 53.3014 57.58C53.1576 57.6841 52.7726 57.9002 52.3012 57.6522L38.2103 50.2442C37.5186 49.8807 36.7598 49.6987 36.0008 49.6987C35.2419 49.6987 34.4829 49.8807 33.7913 50.244L19.7006 57.6519C19.2289 57.8998 18.844 57.6839 18.7004 57.5797C18.5569 57.4755 18.2326 57.1761 18.3227 56.651L21.0139 40.9607C21.2781 39.4201 20.7678 37.8491 19.6482 36.758L8.24848 25.6459C7.86697 25.2738 7.95331 24.8411 8.0083 24.6724C8.063 24.5035 8.24764 24.1025 8.77484 24.026L24.5286 21.7368C26.0754 21.5121 27.412 20.5412 28.1039 19.1393L35.1493 4.86364C35.3852 4.38594 35.8234 4.33433 36.001 4.33433C36.1783 4.33433 36.6165 4.3858 36.8525 4.86364V4.86378L43.8979 19.1395C44.5896 20.5414 45.9261 21.5122 47.4729 21.737L63.227 24.0262C63.7542 24.1027 63.9387 24.5036 63.9935 24.6725C64.0483 24.8414 64.1348 25.2742 63.7532 25.646L52.3534 36.7581C51.234 37.8491 50.7237 39.4201 50.9879 40.9607Z" fill="#43587B"/>
<path d="M58.1881 3.1816C57.3393 2.5651 56.1517 2.75326 55.5352 3.60179L53.5191 6.3766C52.9026 7.22513 53.0906 8.41299 53.9393 9.02949C54.2767 9.27432 54.6672 9.39231 55.0542 9.39231C55.6416 9.39231 56.2207 9.12076 56.5922 8.60945L58.6083 5.83463C59.2248 4.98596 59.0368 3.7981 58.1881 3.1816Z" fill="#43587B"/>
<path d="M18.4726 6.36536L16.4564 3.59054C15.84 2.74229 14.6523 2.55413 13.8035 3.17035C12.955 3.78685 12.7668 4.97471 13.3833 5.82325L15.3995 8.59806C15.7711 9.10979 16.3502 9.3812 16.9378 9.3812C17.3249 9.3812 17.7156 9.26322 18.0525 9.01825C18.901 8.40189 19.0892 7.21403 18.4726 6.36536Z" fill="#43587B"/>
<path d="M6.96822 43.1478C6.64408 42.1504 5.57266 41.6043 4.57492 41.9285L1.31285 42.9885C0.315112 43.3127 -0.230653 44.3844 0.0934872 45.3818C0.354206 46.1846 1.09882 46.6948 1.89939 46.6948C2.09388 46.6948 2.29174 46.6646 2.48678 46.6012L5.74886 45.5411C6.74646 45.217 7.29236 44.1456 6.96822 43.1478Z" fill="#43587B"/>
<path d="M36.0008 64.2355C34.9519 64.2355 34.1016 65.0859 34.1016 66.1348V69.5649C34.1016 70.6139 34.9519 71.4642 36.0008 71.4642C37.0498 71.4642 37.9001 70.6139 37.9001 69.5649V66.1348C37.9001 65.0858 37.0499 64.2355 36.0008 64.2355Z" fill="#43587B"/>
<path d="M70.6874 42.9912L67.4253 41.9311C66.428 41.6073 65.3561 42.1529 65.032 43.1506C64.7078 44.1484 65.2536 45.2198 66.2513 45.5439L69.5134 46.604C69.7085 46.6672 69.9062 46.6973 70.1007 46.6973C70.9014 46.6973 71.646 46.187 71.9067 45.3843C72.2309 44.3867 71.685 43.3153 70.6874 42.9912Z" fill="#43587B"/>
</svg>
