<svg width="72" height="72" viewBox="0 0 72 72" fill="none" xmlns="http://www.w3.org/2000/svg">
<g clip-path="url(#clip0)">
<path d="M50.2299 15.1002C46.5177 11.3418 41.5661 9.23458 36.2877 9.16591C30.9336 9.09615 25.8716 11.1396 22.0313 14.9189C18.1933 18.696 16.0707 23.7222 16.0548 29.072C16.0377 34.8624 18.5311 40.3687 22.8954 44.1793C26.0551 46.938 27.8673 50.8612 27.8673 54.9415V65.0155C27.8673 68.8667 31.0006 72 34.8518 72H37.1958C41.0465 72 44.1798 68.8667 44.1798 65.0155V55.0706C44.1798 50.8739 45.9574 46.9342 49.0572 44.2612C53.4643 40.4616 55.9923 34.947 55.9923 29.133C55.9923 23.8453 53.9461 18.8613 50.2299 15.1002ZM36.0059 39.2558H35.0732C34.5634 39.2558 34.1487 38.8411 34.1487 38.3308C34.1487 37.821 34.5634 37.4063 35.0732 37.4063C35.5874 37.4063 36.0059 37.8248 36.0059 38.339V39.2558ZM36.0235 47.6137C36.7992 47.6137 37.4298 48.2443 37.4298 49.0199V53.8012H34.6173V49.0199C34.6173 48.2443 35.2479 47.6137 36.0235 47.6137ZM41.3673 56.6137V58.6818H30.6798V56.6137H41.3673ZM30.6798 61.4943H41.3673V63.5625H30.6798V61.4943ZM37.1952 69.1875H34.8518C33.027 69.1875 31.4735 68.0098 30.9083 66.375H41.1388C40.5735 68.0098 39.02 69.1875 37.1952 69.1875ZM47.2208 42.1315C43.8167 45.0665 41.7408 49.2649 41.4129 53.8012H40.2423V49.0199C40.2423 47.7642 39.6902 46.6359 38.8173 45.8624C38.8173 45.8564 38.8184 45.8504 38.8184 45.8438V41.2218C39.9638 40.4 40.7108 39.0575 40.7108 37.5436V35.3656C40.7108 32.3696 38.2735 29.9317 35.277 29.9317H32.7425C31.9657 29.9317 31.3362 30.5612 31.3362 31.338C31.3362 32.1147 31.9657 32.7442 32.7425 32.7442H35.277C36.7228 32.7442 37.8983 33.9203 37.8983 35.3656V35.883C37.2111 35.0936 36.1999 34.5938 35.0732 34.5938C33.0127 34.5938 31.3362 36.2703 31.3362 38.3313C31.3362 40.3918 33.0127 42.0683 35.0732 42.0683H36.0059V44.8017C33.6878 44.8111 31.8048 46.6996 31.8048 49.0199V53.8012H30.6408C30.3326 49.3248 28.2227 45.0967 24.7455 42.0606C20.9948 38.7867 18.8524 34.0554 18.8673 29.0808C18.881 24.4874 20.7053 20.1698 24.0045 16.9234C27.3053 13.6747 31.651 11.918 36.2509 11.9784C45.5855 12.0993 53.1798 19.7952 53.1798 29.133C53.1798 34.1285 51.0078 38.8658 47.2208 42.1315Z" fill="#43587B"/>
<path d="M36.3078 16.006H36.2858C35.5107 15.9983 34.8795 16.6196 34.8702 17.3958C34.8614 18.1725 35.4904 18.8097 36.2671 18.8185H36.2885H36.3056C37.0741 18.8185 37.6953 18.2 37.7041 17.4287C37.7135 16.652 37.0845 16.0153 36.3078 16.006Z" fill="#43587B"/>
<path d="M42.4933 17.6561C41.8143 17.2782 40.9579 17.5221 40.58 18.201C40.2026 18.8794 40.446 19.7358 41.1249 20.1138C44.3972 21.9358 46.4297 25.3916 46.4297 29.133C46.4297 29.9097 47.0592 30.5392 47.8359 30.5392C48.6127 30.5392 49.2422 29.9097 49.2422 29.133C49.2422 24.3721 46.656 19.9748 42.4933 17.6561Z" fill="#43587B"/>
<path d="M36.0234 6.60938C36.8002 6.60938 37.4297 5.97986 37.4297 5.20312V1.40625C37.4297 0.629517 36.8002 0 36.0234 0C35.2467 0 34.6172 0.629517 34.6172 1.40625V5.20312C34.6172 5.97986 35.2467 6.60938 36.0234 6.60938Z" fill="#43587B"/>
<path d="M63.75 27.7267H59.9531C59.1764 27.7267 58.5469 28.3563 58.5469 29.133C58.5469 29.9097 59.1764 30.5392 59.9531 30.5392H63.75C64.5267 30.5392 65.1562 29.9097 65.1562 29.133C65.1562 28.3563 64.5267 27.7267 63.75 27.7267Z" fill="#43587B"/>
<path d="M12.0938 27.7267H8.29688C7.52014 27.7267 6.89062 28.3563 6.89062 29.133C6.89062 29.9097 7.52014 30.5392 8.29688 30.5392H12.0938C12.8705 30.5392 13.5 29.9097 13.5 29.133C13.5 28.3563 12.8705 27.7267 12.0938 27.7267Z" fill="#43587B"/>
<path d="M53.9387 45.0599C53.3894 44.5106 52.499 44.5106 51.9497 45.0599C51.4009 45.6086 51.4009 46.4991 51.9497 47.0484L54.6347 49.7335C54.9094 50.0076 55.2692 50.1454 55.629 50.1454C55.9888 50.1454 56.3486 50.0076 56.6232 49.7335C57.1726 49.1841 57.1726 48.2937 56.6232 47.7444L53.9387 45.0599Z" fill="#43587B"/>
<path d="M18.1076 13.2061C18.3822 13.4808 18.742 13.6181 19.1018 13.6181C19.4616 13.6181 19.822 13.4808 20.0961 13.2061C20.6454 12.6574 20.6454 11.7669 20.0961 11.2176L17.4116 8.53255C16.8623 7.98378 15.9718 7.98378 15.4225 8.53255C14.8732 9.08186 14.8738 9.97231 15.4225 10.5216L18.1076 13.2061Z" fill="#43587B"/>
<path d="M54.6356 8.53305L51.951 11.2176C51.4017 11.7669 51.4017 12.6573 51.951 13.2066C52.2257 13.4813 52.5855 13.6186 52.9453 13.6186C53.3051 13.6186 53.6649 13.4813 53.9396 13.2066L56.6241 10.5216C57.1734 9.97226 57.1734 9.08182 56.6241 8.5325C56.0753 7.98318 55.1849 7.98373 54.6356 8.53305Z" fill="#43587B"/>
<path d="M18.1082 45.0599L15.4237 47.7444C14.8744 48.2937 14.8744 49.1841 15.4237 49.7335C15.6984 50.0076 16.0582 50.1454 16.418 50.1454C16.7778 50.1454 17.1376 50.0076 17.4122 49.7335L20.0967 47.0484C20.6461 46.4991 20.6461 45.6086 20.0967 45.0599C19.548 44.5106 18.6575 44.5106 18.1082 45.0599Z" fill="#43587B"/>
</g>
<defs>
<clipPath id="clip0">
<rect width="72" height="72" fill="white"/>
</clipPath>
</defs>
</svg>
