<svg width="72" height="72" viewBox="0 0 72 72" fill="none" xmlns="http://www.w3.org/2000/svg">
<path d="M16.2214 57.2159C8.59345 51.1379 4.21875 42.0619 4.21875 32.3155C4.21875 22.5693 8.59317 13.4935 16.2208 7.41544C17.1319 6.68939 17.2818 5.36217 16.5558 4.4512C15.8299 3.54009 14.5027 3.39004 13.5915 4.11609C4.95394 10.9993 0 21.2775 0 32.3155C0 43.3538 4.95408 53.6323 13.5922 60.5153C14.5028 61.2411 15.8302 61.0916 16.5565 60.1802C17.2824 59.2691 17.1325 57.942 16.2214 57.2159Z" fill="#596C8A"/>
<path d="M58.4086 4.11625C57.4974 3.39034 56.1704 3.54025 55.4444 4.45136C54.7183 5.36246 54.8682 6.68954 55.7793 7.41559C63.4067 13.4938 67.7811 22.5695 67.7811 32.3155C67.7811 42.0617 63.4067 51.1373 55.7792 57.2154C54.8681 57.9414 54.7182 59.2687 55.4442 60.1796C56.1706 61.0912 57.4979 61.2402 58.4085 60.5147C67.0459 53.6316 71.9999 43.3533 71.9999 32.3155C71.9999 21.2777 67.0459 10.9994 58.4086 4.11625Z" fill="#596C8A"/>
<path d="M23.2502 48.4111C18.305 44.4777 15.4687 38.611 15.4687 32.3155C15.4687 26.0198 18.305 20.1531 23.2504 16.2195C24.162 15.4943 24.3134 14.1674 23.588 13.2556C22.8627 12.3438 21.5357 12.1926 20.6241 12.9178C14.6668 17.6564 11.25 24.7265 11.25 32.3155C11.25 39.9043 14.6668 46.9744 20.6239 51.7129C21.5363 52.4383 22.8629 52.2865 23.5879 51.3751C24.3131 50.4634 24.1619 49.1363 23.2502 48.4111Z" fill="#596C8A"/>
<path d="M51.3759 12.9181C50.4641 12.193 49.1373 12.3441 48.412 13.2559C47.6868 14.1676 47.8379 15.4946 48.7496 16.2198C53.6948 20.1533 56.5311 26.0199 56.5311 32.3155C56.5311 38.6111 53.6948 44.4779 48.7495 48.4113C47.8378 49.1365 47.6865 50.4634 48.4118 51.3752C49.1375 52.2875 50.4647 52.4378 51.3758 51.713C57.3331 46.9744 60.7498 39.9043 60.7498 32.3155C60.7498 24.7267 57.3331 17.6566 51.3759 12.9181Z" fill="#596C8A"/>
<path d="M36 21.7969C30.1845 21.7969 25.4531 26.5282 25.4531 32.3438C25.4531 37.437 29.0824 41.6984 33.8906 42.6784V66.2344C33.8906 67.3993 34.8351 68.3438 36 68.3438C37.1649 68.3438 38.1094 67.3993 38.1094 66.2344V42.6784C42.9176 41.6985 46.5469 37.4372 46.5469 32.3438C46.5469 26.5282 41.8155 21.7969 36 21.7969ZM36 38.6719C32.5107 38.6719 29.6719 35.8331 29.6719 32.3438C29.6719 28.8544 32.5107 26.0156 36 26.0156C39.4893 26.0156 42.3281 28.8544 42.3281 32.3438C42.3281 35.8331 39.4893 38.6719 36 38.6719Z" fill="#596C8A"/>
</svg>
