<svg width="16" height="16" viewBox="0 0 16 16" fill="none" xmlns="http://www.w3.org/2000/svg">
<path d="M10.3277 14.569C12.088 13.9434 13.4986 12.6719 14.2996 10.9887C15.1006 9.3055 15.1961 7.41203 14.5686 5.65718C13.9411 3.90233 12.6656 2.49607 10.9772 1.69754C9.2888 0.899055 7.38952 0.803816 5.62921 1.42938C5.48105 1.48203 5.40388 1.6445 5.45661 1.79212C5.50943 1.93983 5.6723 2.01685 5.82047 1.96419C7.43746 1.38949 9.18216 1.47697 10.7331 2.2105C12.2841 2.94402 13.4558 4.23578 14.0322 5.8478C14.6086 7.45982 14.5208 9.19919 13.7851 10.7454C13.0493 12.2916 11.7535 13.4596 10.1365 14.0343C8.51955 14.6089 6.77485 14.5215 5.22387 13.7879C3.67289 13.0544 2.50125 11.7627 1.92483 10.1506C1.27878 8.34384 1.4743 6.3618 2.46129 4.71283C2.54192 4.57809 2.49774 4.40393 2.36267 4.32359C2.22761 4.24326 2.05282 4.28726 1.97224 4.42191C1.31504 5.51988 0.980219 6.75326 0.980267 7.99591C0.980267 8.78479 1.11528 9.57755 1.38836 10.3413C2.0159 12.0962 3.29133 13.5023 4.97975 14.3009C6.66821 15.0994 8.56748 15.1946 10.3277 14.569Z" fill="white" stroke="#02BEE8"/>
<path d="M7.97892 11.1215C8.13615 11.1215 8.26367 10.9943 8.26367 10.8376L8.26367 3.76776C8.26367 3.61097 8.13615 3.48389 7.97892 3.48389C7.8217 3.48389 7.69418 3.61097 7.69418 3.76776L7.69418 10.8376C7.69418 10.9943 7.82169 11.1215 7.97892 11.1215Z" fill="white" stroke="#02BEE8"/>
<path d="M4.7667 8.61882C4.6555 8.50792 4.47521 8.50792 4.36401 8.61882C4.30844 8.67422 4.28063 8.74689 4.28063 8.81952C4.28063 8.89214 4.30844 8.96481 4.36401 9.02021L7.54371 12.1901C7.6549 12.301 7.83519 12.301 7.94639 12.1901L11.1261 9.02021C11.2373 8.90941 11.2373 8.72958 11.1261 8.61882C11.0149 8.50792 10.8346 8.50792 10.7234 8.61882L7.74507 11.588L4.7667 8.61882Z" fill="white" stroke="#02BEE8"/>
</svg>
