<svg width="40" height="40" viewBox="0 0 40 40" fill="none" xmlns="http://www.w3.org/2000/svg">
<path d="M20.2319 17.3842C22.7554 17.3842 24.8094 15.3302 24.8094 12.8067C24.8094 10.2831 22.7554 8.22913 20.2319 8.22913C17.7083 8.22913 15.6543 10.2831 15.6543 12.8067C15.6543 15.3302 17.7077 17.3842 20.2319 17.3842ZM20.2319 9.537C22.0348 9.537 23.5015 11.0038 23.5015 12.8067C23.5015 14.6096 22.0348 16.0764 20.2319 16.0764C18.429 16.0764 16.9622 14.6096 16.9622 12.8067C16.9622 11.0038 18.429 9.537 20.2319 9.537Z" fill="#43587B"/>
<path d="M32.8381 24.5776H28.1552L30.1478 21.7003C33.9112 16.6839 33.3665 8.43842 28.9831 4.05573C26.6152 1.68717 23.4659 0.382568 20.1157 0.382568C16.7663 0.382568 13.6169 1.68717 11.2484 4.05573C6.86503 8.43842 6.3203 16.6846 10.0687 21.6806L12.0749 24.5782H7.16191L0 39.6181H40L32.8381 24.5776ZM11.13 20.9155C7.73019 16.3818 8.21737 8.93541 12.1737 4.97974C14.2951 2.85837 17.1161 1.68979 20.1164 1.68979C23.1167 1.68979 25.9371 2.85837 28.0591 4.97974C32.0154 8.93541 32.5026 16.3824 29.0878 20.9351L20.1157 33.8916L13.666 24.5776L11.13 20.9155ZM7.98849 25.8854H12.9806L20.1157 36.1895L27.2502 25.8854H32.0115L37.9283 38.3102H2.07167L7.98849 25.8854Z" fill="#43587B"/>
</svg>
