<svg width="74" height="74" viewBox="0 0 74 74" fill="none" xmlns="http://www.w3.org/2000/svg">
<path d="M49.205 35.5533L33.8391 24.3835C33.2752 23.9748 32.5266 23.9132 31.9086 24.2309C31.2856 24.5461 30.8965 25.1863 30.8965 25.8783V48.2105C30.8965 48.9098 31.2856 49.5476 31.9086 49.8628C32.172 49.9958 32.4602 50.0623 32.7507 50.0623C33.13 50.0623 33.5141 49.9416 33.8391 49.7027L49.205 38.5428C49.6901 38.1857 49.9733 37.6341 49.9733 37.0481C49.9758 36.4521 49.6852 35.903 49.205 35.5533Z" fill="white"/>
<path d="M37.0012 0.00549316C16.5626 0.00549316 0 16.5681 0 37.0067C0 57.4379 16.5626 73.9956 37.0012 73.9956C57.4349 73.9956 74 57.4355 74 37.0067C74.0025 16.5681 57.4349 0.00549316 37.0012 0.00549316ZM37.0012 67.8222C19.9806 67.8222 6.18083 54.0299 6.18083 37.0067C6.18083 19.991 19.9806 6.18139 37.0012 6.18139C54.0194 6.18139 67.8167 19.9885 67.8167 37.0067C67.8192 54.0299 54.0194 67.8222 37.0012 67.8222Z" fill="white"/>
</svg>
