<svg width="16" height="16" viewBox="0 0 16 16" fill="none" xmlns="http://www.w3.org/2000/svg">
<path d="M14.5901 5.65077C13.9625 3.8905 12.6871 2.47995 10.9987 1.67896C9.31032 0.877912 7.411 0.782379 5.65074 1.40992C3.89047 2.03745 2.47987 3.31289 1.67888 5.0013C0.877928 6.68972 0.782395 8.58899 1.40989 10.3493C1.46271 10.4975 1.62568 10.5746 1.77375 10.5219C1.92191 10.4691 1.99917 10.3062 1.94635 10.158C1.36988 8.54106 1.45763 6.79636 2.19342 5.24538C2.92921 3.6944 4.22496 2.52276 5.84195 1.94633C7.45894 1.36991 9.20369 1.45771 10.7546 2.19345C12.3056 2.92924 13.4772 4.22499 14.0537 5.84198C14.6301 7.45897 14.5424 9.20367 13.8066 10.7546C13.0708 12.3056 11.7751 13.4773 10.1581 14.0537C8.34569 14.6997 6.35753 14.5042 4.70347 13.5172C4.56831 13.4366 4.39362 13.4808 4.31304 13.6158C4.23245 13.7509 4.27659 13.9257 4.41166 14.0063C5.51301 14.6635 6.7502 14.9983 7.99668 14.9982C8.788 14.9982 9.58321 14.8632 10.3493 14.5902C12.1096 13.9626 13.5201 12.6872 14.3211 10.9988C15.1221 9.31031 15.2176 7.41103 14.5901 5.65077Z" fill="white" stroke="white"/>
<path d="M11.1323 7.99959C11.1323 7.84236 11.0048 7.71484 10.8476 7.71484H3.75594C3.59866 7.71484 3.47119 7.84236 3.47119 7.99959C3.47119 8.15682 3.59866 8.28434 3.75594 8.28434H10.8476C11.0048 8.28434 11.1323 8.15682 11.1323 7.99959Z" fill="white" stroke="white"/>
<path d="M8.62152 11.2117C8.51028 11.3229 8.51028 11.5032 8.62152 11.6144C8.67709 11.67 8.74999 11.6978 8.82283 11.6978C8.89568 11.6978 8.96858 11.67 9.02415 11.6144L12.2038 8.43469C12.3151 8.32349 12.3151 8.1432 12.2038 8.03201L9.02415 4.85232C8.913 4.74112 8.73262 4.74112 8.62152 4.85232C8.51028 4.96351 8.51028 5.1438 8.62152 5.255L11.5998 8.23332L8.62152 11.2117Z" fill="white" stroke="white"/>
</svg>
