<svg width="29" height="28" viewBox="0 0 29 28" fill="none" xmlns="http://www.w3.org/2000/svg">
<path d="M26.24 9.63758C25.0745 6.36835 22.7057 3.74863 19.5699 2.26098C16.4342 0.773253 12.9068 0.595825 9.63753 1.76131C6.36829 2.9268 3.74848 5.29559 2.26084 8.43138C0.773283 11.5672 0.595855 15.0946 1.76125 18.3639C1.85936 18.6391 2.16203 18.7824 2.43703 18.6845C2.71221 18.5864 2.8557 18.2839 2.7576 18.0087C1.68695 15.0055 1.84992 11.7652 3.21646 8.88468C4.583 6.00415 6.98951 3.82813 9.99265 2.75757C12.9958 1.68701 16.2362 1.85007 19.1166 3.21652C21.9973 4.58306 24.1732 6.98957 25.2438 9.9927C26.3144 12.9958 26.1514 16.2362 24.7849 19.1167C23.4184 21.9972 21.0118 24.1733 18.0087 25.2438C14.6427 26.4437 10.9502 26.0805 7.87823 24.2475C7.62721 24.0977 7.30276 24.1798 7.1531 24.4306C7.00344 24.6815 7.08541 25.0061 7.33626 25.1558C9.38174 26.3763 11.6795 26.9982 13.9945 26.9981C15.4642 26.9981 16.9411 26.7473 18.3638 26.2402C21.6332 25.0747 24.2528 22.7059 25.7404 19.5701C27.2281 16.4342 27.4055 12.9068 26.24 9.63758Z" fill="white" stroke="white" stroke-width="2"/>
<path d="M19.8179 14.0003C19.8179 13.7083 19.5811 13.4714 19.2891 13.4714H6.1182C5.8261 13.4714 5.58936 13.7083 5.58936 14.0003C5.58936 14.2923 5.8261 14.5291 6.1182 14.5291H19.2891C19.5811 14.5291 19.8179 14.2923 19.8179 14.0003Z" fill="white" stroke="white" stroke-width="2"/>
<path d="M15.6037 19.5317C15.3971 19.7382 15.3971 20.073 15.6037 20.2796C15.7069 20.3828 15.8423 20.4344 15.9776 20.4344C16.1129 20.4344 16.2483 20.3828 16.3515 20.2796L22.2569 14.3741C22.4635 14.1676 22.4635 13.8328 22.2569 13.6262L16.3515 7.7208C16.145 7.51429 15.81 7.51429 15.6037 7.7208C15.3971 7.92732 15.3971 8.26217 15.6037 8.46868L21.1351 14.0001L15.6037 19.5317Z" fill="white" stroke="white" stroke-width="2"/>
</svg>
