<svg width="16" height="16" viewBox="0 0 16 16" fill="none" xmlns="http://www.w3.org/2000/svg">
<path d="M14.6321 5.65077C14.0045 3.8905 12.7291 2.47995 11.0407 1.67896C9.35231 0.877912 7.453 0.782379 5.69273 1.40992C3.93246 2.03745 2.52187 3.31289 1.72087 5.0013C0.91992 6.68972 0.824387 8.58899 1.45188 10.3493C1.5047 10.4975 1.66767 10.5746 1.81574 10.5219C1.9639 10.4691 2.04116 10.3062 1.98834 10.158C1.41187 8.54106 1.49962 6.79636 2.23541 5.24538C2.9712 3.6944 4.26695 2.52276 5.88394 1.94633C7.50093 1.36991 9.24568 1.45771 10.7966 2.19345C12.3476 2.92924 13.5192 4.22499 14.0957 5.84198C14.6721 7.45897 14.5844 9.20367 13.8486 10.7546C13.1128 12.3056 11.817 13.4773 10.2001 14.0537C8.38768 14.6997 6.39952 14.5042 4.74547 13.5172C4.61031 13.4366 4.43561 13.4808 4.35503 13.6158C4.27445 13.7509 4.31858 13.9257 4.45365 14.0063C5.55501 14.6635 6.79219 14.9983 8.03868 14.9982C8.82999 14.9982 9.6252 14.8632 10.3913 14.5902C12.1516 13.9626 13.5621 12.6872 14.3631 10.9988C15.1641 9.31031 15.2596 7.41103 14.6321 5.65077Z" fill="white" stroke="#FF5C26"/>
<path d="M11.1743 7.99959C11.1743 7.84236 11.0468 7.71484 10.8896 7.71484H3.79793C3.64066 7.71484 3.51318 7.84236 3.51318 7.99959C3.51318 8.15682 3.64066 8.28434 3.79793 8.28434H10.8896C11.0468 8.28434 11.1743 8.15682 11.1743 7.99959Z" fill="white" stroke="#FF5C26"/>
<path d="M8.66351 11.2117C8.55227 11.3229 8.55227 11.5032 8.66351 11.6144C8.71908 11.67 8.79198 11.6978 8.86483 11.6978C8.93767 11.6978 9.01057 11.67 9.06614 11.6144L12.2458 8.43469C12.3571 8.32349 12.3571 8.1432 12.2458 8.03201L9.06614 4.85232C8.955 4.74112 8.77461 4.74112 8.66351 4.85232C8.55227 4.96351 8.55227 5.1438 8.66351 5.255L11.6418 8.23332L8.66351 11.2117Z" fill="white" stroke="#FF5C26"/>
</svg>
