<svg width="17" height="17" viewBox="0 0 17 17" fill="none" xmlns="http://www.w3.org/2000/svg">
<path fill-rule="evenodd" clip-rule="evenodd" d="M5.00001 13.3333C4.08334 13.3333 3.34167 14.0833 3.34167 14.9999C3.34167 15.9166 4.08334 16.6666 5.00001 16.6666C5.91668 16.6666 6.66668 15.9166 6.66668 14.9999C6.66668 14.0833 5.91668 13.3333 5.00001 13.3333ZM0 0V1.66667H1.66667L4.66667 7.99167L3.54167 10.0333C3.40833 10.2667 3.33333 10.5417 3.33333 10.8333C3.33333 11.75 4.08333 12.5 5 12.5H15V10.8333H5.35C5.23333 10.8333 5.14167 10.7417 5.14167 10.625L5.16667 10.525L5.91667 9.16667H12.125C12.75 9.16667 13.3 8.825 13.5833 8.30833L16.5667 2.9C16.6333 2.78333 16.6667 2.64167 16.6667 2.5C16.6667 2.04167 16.2917 1.66667 15.8333 1.66667H3.50833L2.725 0H0ZM13.3333 13.3333C12.4167 13.3333 11.675 14.0833 11.675 14.9999C11.675 15.9166 12.4167 16.6666 13.3333 16.6666C14.25 16.6666 15 15.9166 15 14.9999C15 14.0833 14.25 13.3333 13.3333 13.3333Z" fill="#43587B"/>
</svg>
