<svg width="38" height="38" viewBox="0 0 38 38" fill="none" xmlns="http://www.w3.org/2000/svg">
<path d="M22.1666 1.90002H15.8333C15.4837 1.90002 15.2 2.18376 15.2 2.53333C15.2 2.8829 15.4837 3.16664 15.8333 3.16664H22.1666C22.5161 3.16664 22.7999 2.8829 22.7999 2.53333C22.7999 2.18376 22.5161 1.90002 22.1666 1.90002Z" fill="#43587B"/>
<path d="M26.6001 1.90002H25.9668C25.6172 1.90002 25.3335 2.18376 25.3335 2.53333C25.3335 2.8829 25.6172 3.16664 25.9668 3.16664H26.6001C26.9497 3.16664 27.2334 2.8829 27.2334 2.53333C27.2334 2.18376 26.9497 1.90002 26.6001 1.90002Z" fill="#43587B"/>
<path d="M19.7867 32.3H18.2141C17.2508 32.3 16.4668 33.0841 16.4668 34.0474V34.3533C16.4668 35.3166 17.2508 36.1 18.2135 36.1H19.7861C20.7494 36.1 21.5334 35.3166 21.5334 34.3533V34.0474C21.5334 33.0841 20.7494 32.3 19.7867 32.3ZM20.2668 34.3533C20.2668 34.618 20.0515 34.8334 19.7867 34.8334H18.2141C17.9488 34.8334 17.7334 34.618 17.7334 34.3533V34.0474C17.7334 33.782 17.9487 33.5667 18.2141 33.5667H19.7861C20.0515 33.5667 20.2668 33.782 20.2668 34.0474V34.3533Z" fill="#43587B"/>
<path d="M27.4779 0H10.5229C9.26066 0 8.2334 1.02726 8.2334 2.2895V35.7105C8.2334 36.9727 9.26066 38 10.5229 38H27.4772C28.7394 38 29.7667 36.9727 29.7667 35.7112V2.2895C29.7668 1.02726 28.7395 0 27.4779 0ZM28.5001 35.7105C28.5001 36.2742 28.0416 36.7333 27.4779 36.7333H10.5229C9.95861 36.7333 9.50009 36.2741 9.50009 35.7111V2.2895C9.50009 1.72581 9.95861 1.26669 10.5229 1.26669H27.4772C28.0415 1.26669 28.5 1.72588 28.5 2.2895V35.7105H28.5001Z" fill="#43587B"/>
<path d="M29.1333 3.80005H8.86671C8.51714 3.80005 8.2334 4.08379 8.2334 4.43336V31.0334C8.2334 31.3829 8.51714 31.6667 8.86671 31.6667H29.1334C29.483 31.6667 29.7667 31.3829 29.7667 31.0334V4.43336C29.7667 4.08379 29.483 3.80005 29.1333 3.80005ZM28.5 30.4001H9.50002V5.06674H28.5V30.4001Z" fill="#43587B"/>
</svg>
