<svg width="24" height="22" viewBox="0 0 24 22" fill="none" xmlns="http://www.w3.org/2000/svg">
<path d="M23.8008 3.38492C23.6401 3.27594 23.4271 3.28184 23.2718 3.399C23.0679 3.5534 22.7364 3.67601 22.3795 3.77046C23.309 2.72874 23.329 2.03305 23.319 1.8732C23.3086 1.70791 23.2091 1.56123 23.0593 1.49084C22.909 1.42 22.7328 1.43726 22.5988 1.53444C21.553 2.29461 20.5113 2.45491 19.8919 2.47126C18.941 1.56123 17.7063 1.06262 16.3921 1.06262C13.5784 1.06262 11.2898 3.3822 11.2898 6.23308C11.2898 6.4783 11.307 6.72306 11.3411 6.96556C6.46487 6.91061 2.50506 2.2383 2.46419 2.18972C2.36882 2.07619 2.22442 2.01534 2.07638 2.02851C1.92834 2.04122 1.7962 2.12523 1.72218 2.2542C0.318987 4.68821 1.25808 6.82615 2.11634 8.05042C1.96467 7.96959 1.84161 7.88966 1.76804 7.83563C1.63181 7.73391 1.44971 7.7171 1.29622 7.79249C1.14319 7.86787 1.04556 8.02226 1.04238 8.19255C1.00469 10.5121 2.12088 11.8408 3.17078 12.5756C3.03091 12.5624 2.88878 12.6142 2.7916 12.72C2.68261 12.8385 2.64401 13.0061 2.69124 13.16C3.41645 15.5336 5.197 16.3401 6.33 16.614C4.00043 18.4277 0.571924 17.8437 0.534233 17.8373C0.32716 17.8005 0.122812 17.9095 0.0383484 18.1016C-0.0456614 18.2933 0.0115561 18.518 0.178667 18.6452C2.63766 20.522 5.57891 20.9375 7.70322 20.9375C9.3103 20.9375 10.4506 20.6996 10.5595 20.6755C21.321 18.1252 21.6239 8.26793 21.5989 6.65268C23.6192 4.77404 23.9348 4.05836 23.9834 3.88126C24.0356 3.69372 23.9621 3.49391 23.8008 3.38492ZM20.8319 6.12546C20.7306 6.21855 20.6775 6.35251 20.6866 6.49011C20.7152 6.92605 21.2656 17.2057 10.3593 19.79C10.3098 19.8004 5.97443 20.705 2.21624 18.8432C3.80426 18.7991 6.08115 18.3832 7.66734 16.6022C7.78723 16.4682 7.81629 16.2757 7.74182 16.1122C7.66825 15.9501 7.50613 15.8461 7.32858 15.8461H7.32404C7.30133 15.8606 4.91682 15.8433 3.82515 13.5751C4.26472 13.6001 4.80692 13.5728 5.23878 13.3739C5.41679 13.2917 5.52169 13.1051 5.49989 12.9103C5.47809 12.7159 5.33369 12.5574 5.14205 12.517C5.0199 12.4911 2.36519 11.8976 1.99373 9.00177C2.39652 9.17797 2.91194 9.32192 3.42144 9.24427C3.59673 9.21793 3.74023 9.09214 3.78972 8.92185C3.83922 8.75156 3.78518 8.5681 3.65122 8.45185C3.5377 8.35285 1.04465 6.13727 2.22669 3.27957C3.50999 4.626 7.31087 8.12489 11.916 7.8606C12.0508 7.85288 12.1757 7.78476 12.2561 7.67578C12.336 7.56679 12.3633 7.42784 12.3306 7.2966C12.2434 6.94921 12.1989 6.59137 12.1989 6.23354C12.1989 3.88308 14.0807 1.97129 16.3935 1.97129C17.5246 1.97129 18.5859 2.42267 19.381 3.24279C19.4646 3.32907 19.5795 3.37857 19.6994 3.38084C20.1807 3.38765 20.9718 3.33089 21.8654 2.9726C21.6075 3.29365 21.2288 3.67828 20.6716 4.11604C20.514 4.24001 20.4564 4.45208 20.5295 4.63871C20.6026 4.82581 20.7915 4.94342 20.9886 4.92571C21.0944 4.91708 21.6339 4.86985 22.2437 4.73771C21.9104 5.09554 21.4549 5.55238 20.8319 6.12546Z" fill="#43587B" stroke="#43587B" stroke-width="0.4"/>
</svg>
