<svg width="60" height="60" viewBox="0 0 60 60" fill="none" xmlns="http://www.w3.org/2000/svg">
<path d="M42.3884 9.82191C42.8052 9.82191 43.209 9.65257 43.4956 9.36599C43.7822 9.0794 43.9515 8.67558 43.9515 8.25874C43.9515 7.85491 43.7822 7.43807 43.4956 7.15148C43.209 6.8649 42.8052 6.69556 42.3884 6.69556C41.9715 6.69556 41.5677 6.8649 41.2811 7.15148C40.9945 7.43807 40.8252 7.84189 40.8252 8.25874C40.8252 8.67558 40.9945 9.0794 41.2811 9.36599C41.5677 9.65257 41.9715 9.82191 42.3884 9.82191Z" fill="#43587B"/>
<path d="M50.1649 19.0446C50.0216 18.1979 49.214 17.6248 48.3542 17.7681C47.5075 17.9113 46.9343 18.719 47.0776 19.5787C47.2079 20.3343 47.8722 20.8814 48.6147 20.8814C48.7059 20.8814 48.7841 20.8683 48.8753 20.8553C49.735 20.712 50.3082 19.9044 50.1649 19.0446Z" fill="#43587B"/>
<path d="M47.8204 32.5923C48.2503 31.8367 47.9767 30.8858 47.2342 30.4559C46.4787 30.026 45.5278 30.2996 45.0979 31.0551C44.668 31.8107 44.9416 32.7616 45.6971 33.1785C45.9446 33.3218 46.2051 33.3869 46.4657 33.3869C47.0128 33.3869 47.5338 33.1003 47.8204 32.5923Z" fill="#43587B"/>
<path d="M46.4655 14.8111C46.726 14.8111 46.9865 14.746 47.234 14.6027C47.9896 14.1728 48.2501 13.2219 47.8202 12.4664C47.3903 11.7108 46.4394 11.4503 45.6839 11.8802C44.9283 12.31 44.6678 13.261 45.0977 14.0165C45.3843 14.5245 45.9184 14.8111 46.4655 14.8111Z" fill="#43587B"/>
<path d="M48.8883 24.2162C48.0416 24.0729 47.2339 24.646 47.0776 25.4928C46.9343 26.3395 47.5075 27.1471 48.3542 27.3035C48.4454 27.3165 48.5366 27.3295 48.6147 27.3295C49.3573 27.3295 50.0216 26.7954 50.1519 26.0269C50.3082 25.1671 49.735 24.3595 48.8883 24.2162Z" fill="#43587B"/>
<path d="M42.3884 38.3761C42.8052 38.3761 43.209 38.2068 43.4956 37.9202C43.7822 37.6336 43.9515 37.2298 43.9515 36.8129C43.9515 36.3961 43.7822 35.9923 43.4956 35.7057C43.209 35.4191 42.8052 35.2498 42.3884 35.2498C41.9715 35.2498 41.5677 35.4191 41.2811 35.7057C40.9945 35.9923 40.8252 36.3961 40.8252 36.8129C40.8252 37.2298 40.9945 37.6336 41.2811 37.9202C41.5677 38.2068 41.9715 38.3761 42.3884 38.3761Z" fill="#43587B"/>
<path d="M17.612 35.2498C17.1952 35.2498 16.7913 35.4191 16.5048 35.7057C16.2182 35.9923 16.0488 36.3961 16.0488 36.8129C16.0488 37.2298 16.2182 37.6336 16.5048 37.9202C16.7913 38.2068 17.1952 38.3761 17.612 38.3761C18.0288 38.3761 18.4327 38.2068 18.7193 37.9202C19.0058 37.6336 19.1752 37.2298 19.1752 36.8129C19.1752 36.3961 19.0058 35.9923 18.7193 35.7057C18.4327 35.4191 18.0288 35.2498 17.612 35.2498Z" fill="#43587B"/>
<path d="M12.1667 12.4793C11.7368 13.2348 12.0104 14.1858 12.7529 14.6156C13.0004 14.7589 13.2609 14.8241 13.5214 14.8241C14.0686 14.8241 14.6026 14.5375 14.8892 14.0294C15.3191 13.2739 15.0455 12.323 14.303 11.8931C13.5475 11.4632 12.5966 11.7238 12.1667 12.4793Z" fill="#43587B"/>
<path d="M11.3724 27.3166C11.4636 27.3166 11.5548 27.3035 11.6329 27.2905C12.4797 27.1472 13.0528 26.3396 12.9095 25.4798C12.7662 24.6331 11.9586 24.0599 11.0988 24.2032C10.2521 24.3465 9.67896 25.1542 9.82225 26.0139C9.96554 26.7825 10.6299 27.3166 11.3724 27.3166Z" fill="#43587B"/>
<path d="M11.3724 20.8814C12.1149 20.8814 12.7793 20.3473 12.9095 19.5787C13.0528 18.732 12.4797 17.9244 11.6329 17.7681C10.7862 17.6248 9.97857 18.1979 9.82225 19.0446C9.67896 19.8914 10.2521 20.699 11.0988 20.8553C11.2031 20.8683 11.2812 20.8814 11.3724 20.8814Z" fill="#43587B"/>
<path d="M12.7659 30.4689C12.0104 30.8988 11.7498 31.8497 12.1797 32.6052C12.4663 33.1133 13.0004 33.3999 13.5475 33.3999C13.808 33.3999 14.0686 33.3347 14.3161 33.1914C15.0716 32.7616 15.3321 31.8106 14.9023 31.0551C14.4724 30.2996 13.5215 30.039 12.7659 30.4689Z" fill="#43587B"/>
<path d="M17.612 9.82191C18.0288 9.82191 18.4327 9.65257 18.7193 9.36599C19.0058 9.0794 19.1752 8.67558 19.1752 8.25874C19.1752 7.85491 19.0058 7.43807 18.7193 7.15148C18.4327 6.8649 18.0288 6.69556 17.612 6.69556C17.1952 6.69556 16.7913 6.8649 16.5048 7.15148C16.2182 7.43807 16.0488 7.84189 16.0488 8.25874C16.0488 8.67558 16.2182 9.0794 16.5048 9.36599C16.8044 9.65257 17.2082 9.82191 17.612 9.82191Z" fill="#43587B"/>
<path d="M49.071 3.12636C49.4878 3.12636 49.8917 2.95701 50.1782 2.67043C50.4648 2.38385 50.6342 1.98003 50.6342 1.56318C50.6342 1.14633 50.4648 0.74251 50.1782 0.455927C49.8917 0.169344 49.4878 0 49.071 0C48.6541 0 48.2503 0.169344 47.9637 0.455927C47.6772 0.74251 47.5078 1.14633 47.5078 1.56318C47.5078 1.98003 47.6772 2.38385 47.9637 2.67043C48.2633 2.95701 48.6672 3.12636 49.071 3.12636Z" fill="#43587B"/>
<path d="M54.5027 11.6978C54.7633 12.2839 55.3364 12.6226 55.9356 12.6226C56.1441 12.6226 56.3655 12.5836 56.5739 12.4924C57.3686 12.1407 57.7203 11.2158 57.3686 10.4342C57.0168 9.63957 56.092 9.28786 55.3104 9.63957C54.5158 9.99129 54.151 10.9162 54.5027 11.6978Z" fill="#43587B"/>
<path d="M56.5743 32.5662C55.7797 32.2145 54.8679 32.5792 54.5161 33.3608C54.1644 34.1554 54.5292 35.0673 55.3108 35.419C55.5192 35.5102 55.7276 35.5492 55.9491 35.5492C56.5483 35.5492 57.1214 35.1975 57.382 34.6244C57.7207 33.8428 57.3559 32.9179 56.5743 32.5662Z" fill="#43587B"/>
<path d="M58.0592 26.8606C57.2124 26.6783 56.3787 27.2254 56.2094 28.0721C56.027 28.9188 56.5741 29.7525 57.4209 29.9219C57.5251 29.9479 57.6423 29.9609 57.7465 29.9609C58.476 29.9609 59.1143 29.4529 59.2706 28.7234C59.453 27.8637 58.9059 27.043 58.0592 26.8606Z" fill="#43587B"/>
<path d="M58.3459 20.9727C57.4861 20.9727 56.7827 21.6761 56.7827 22.5358C56.7827 23.3956 57.4861 24.099 58.3459 24.099C59.2056 24.099 59.9091 23.3956 59.9091 22.5358C59.9091 21.6631 59.2187 20.9727 58.3459 20.9727Z" fill="#43587B"/>
<path d="M53.005 7.51623C53.3177 7.51623 53.6433 7.42505 53.9169 7.21662C54.6203 6.70859 54.7766 5.7316 54.2686 5.02817C53.7606 4.32474 52.7836 4.16842 52.0802 4.67646C51.3767 5.18449 51.2204 6.16148 51.7285 6.86491C52.0411 7.29478 52.5231 7.51623 53.005 7.51623Z" fill="#43587B"/>
<path d="M53.9169 37.842C53.2135 37.3339 52.2365 37.4903 51.7285 38.1937C51.2204 38.8971 51.3767 39.8741 52.0802 40.3821C52.3537 40.5775 52.6794 40.6818 52.992 40.6818C53.474 40.6818 53.956 40.4603 54.2556 40.0304C54.7767 39.327 54.6203 38.337 53.9169 37.842Z" fill="#43587B"/>
<path d="M56.2095 16.9865C56.3658 17.716 57.0172 18.224 57.7336 18.224C57.8378 18.224 57.942 18.211 58.0593 18.1849C58.906 18.0026 59.4401 17.1819 59.2707 16.3352C59.0884 15.4884 58.2677 14.9544 57.421 15.1237C56.5743 15.3191 56.0402 16.1528 56.2095 16.9865Z" fill="#43587B"/>
<path d="M49.0837 41.9453C48.6668 41.9453 48.263 42.1147 47.9764 42.4012C47.6899 42.6878 47.5205 43.0916 47.5205 43.5085C47.5205 43.9253 47.6899 44.3292 47.9764 44.6157C48.263 44.9023 48.6668 45.0717 49.0837 45.0717C49.5005 45.0717 49.9044 44.9023 50.1909 44.6157C50.4775 44.3292 50.6469 43.9253 50.6469 43.5085C50.6469 43.0916 50.4775 42.6878 50.1909 42.4012C49.8913 42.1147 49.4875 41.9453 49.0837 41.9453Z" fill="#43587B"/>
<path d="M10.9162 41.9453C10.4994 41.9453 10.0955 42.1147 9.80895 42.4012C9.52237 42.6878 9.35303 43.0916 9.35303 43.5085C9.35303 43.9123 9.52237 44.3292 9.80895 44.6157C10.0955 44.9023 10.4994 45.0717 10.9162 45.0717C11.3331 45.0717 11.7369 44.9023 12.0235 44.6157C12.31 44.3292 12.4794 43.9253 12.4794 43.5085C12.4794 43.0916 12.31 42.6878 12.0235 42.4012C11.7369 42.1147 11.3331 41.9453 10.9162 41.9453Z" fill="#43587B"/>
<path d="M1.92827 18.2111C2.03248 18.2371 2.14972 18.2502 2.25393 18.2502C2.97039 18.2502 3.62171 17.7421 3.77803 17.0126C3.9604 16.1659 3.41329 15.3322 2.56657 15.1629C1.71985 14.9805 0.88615 15.5276 0.716806 16.3744C0.547461 17.208 1.09457 18.0287 1.92827 18.2111Z" fill="#43587B"/>
<path d="M6.08356 7.22968C6.35711 7.42508 6.68277 7.52929 6.99541 7.52929C7.47739 7.52929 7.95937 7.30784 8.25898 6.87797C8.76701 6.17454 8.61069 5.19755 7.90726 4.68952C7.20383 4.18148 6.22685 4.3378 5.71881 5.04123C5.22381 5.74466 5.38013 6.72165 6.08356 7.22968Z" fill="#43587B"/>
<path d="M3.79076 28.085C3.60839 27.2383 2.78772 26.7042 1.941 26.8736C1.09428 27.056 0.560192 27.8766 0.729536 28.7233C0.885854 29.4659 1.53718 29.9609 2.25364 29.9609C2.35785 29.9609 2.46206 29.9478 2.5793 29.9218C3.42602 29.7524 3.96011 28.9187 3.79076 28.085Z" fill="#43587B"/>
<path d="M3.21767 22.5358C3.21767 21.6761 2.51424 20.9727 1.65449 20.9727C0.794739 20.9727 0.0913086 21.6761 0.0913086 22.5358C0.0913086 23.3956 0.794739 24.099 1.65449 24.099C2.51424 24.099 3.21767 23.4086 3.21767 22.5358Z" fill="#43587B"/>
<path d="M3.42613 12.5054C3.63456 12.5966 3.84298 12.6357 4.06443 12.6357C4.66365 12.6357 5.23681 12.284 5.49734 11.7108C5.84906 10.9162 5.48432 10.0043 4.70273 9.65262C3.90811 9.3009 2.99626 9.66564 2.64455 10.4472C2.2798 11.2288 2.64455 12.1537 3.42613 12.5054Z" fill="#43587B"/>
<path d="M6.08359 37.842C5.38016 38.35 5.22384 39.327 5.73187 40.0304C6.03148 40.4603 6.51346 40.6817 6.99544 40.6817C7.30808 40.6817 7.63374 40.5905 7.9073 40.3821C8.61073 39.8741 8.76705 38.8971 8.25901 38.1937C7.76401 37.5033 6.78702 37.3339 6.08359 37.842Z" fill="#43587B"/>
<path d="M5.49738 33.3739C5.14566 32.5793 4.22078 32.2276 3.43919 32.5793C2.64458 32.931 2.29286 33.8559 2.64458 34.6375C2.90511 35.2237 3.47827 35.5754 4.07749 35.5754C4.28592 35.5754 4.50737 35.5363 4.71579 35.4451C5.48435 35.0804 5.84909 34.1555 5.49738 33.3739Z" fill="#43587B"/>
<path d="M10.9162 3.12636C11.32 3.12636 11.7369 2.95701 12.0235 2.67043C12.31 2.38385 12.4794 1.98003 12.4794 1.56318C12.4794 1.14633 12.31 0.74251 12.0235 0.455927C11.7369 0.169344 11.3331 0 10.9162 0C10.4994 0 10.0955 0.169344 9.80895 0.455927C9.52237 0.74251 9.35303 1.14633 9.35303 1.56318C9.35303 1.98003 9.52237 2.38385 9.80895 2.67043C10.1086 2.95701 10.5124 3.12636 10.9162 3.12636Z" fill="#43587B"/>
<path d="M34.5723 30.4298C37.2948 28.8536 39.1185 25.9096 39.1185 22.5358C39.1185 17.5076 35.0282 13.4172 30 13.4172C24.9718 13.4172 20.8814 17.5076 20.8814 22.5358C20.8814 25.8966 22.7182 28.8406 25.4277 30.4298L15.3061 57.9027C15.1237 58.3847 15.2019 58.9188 15.4885 59.3356C15.7751 59.7524 16.257 60 16.7651 60H43.2219C43.7299 60 44.2119 59.7524 44.4985 59.3356C44.785 58.9188 44.8632 58.3847 44.6808 57.9027L34.5723 30.4298ZM24.0078 22.5358C24.0078 19.227 26.7043 16.5436 30 16.5436C33.2957 16.5436 35.9922 19.2401 35.9922 22.5358C35.9922 25.102 34.3639 27.3035 32.0842 28.1502C32.0712 28.1502 32.0712 28.1502 32.0582 28.1632C32.0451 28.1632 32.0451 28.1762 32.0321 28.1762C31.3938 28.4107 30.7034 28.541 29.987 28.541C26.6913 28.528 24.0078 25.8445 24.0078 22.5358ZM28.3586 31.511C28.8927 31.6022 29.4398 31.6673 30 31.6673C30.5601 31.6673 31.1072 31.6152 31.6413 31.511L36.1094 43.6387H23.8906L28.3586 31.511ZM19.0056 56.8736L22.7312 46.765H37.2557L40.9813 56.8736H19.0056Z" fill="#43587B"/>
</svg>
