<svg width="60" height="60" viewBox="0 0 60 60" fill="none" xmlns="http://www.w3.org/2000/svg">
<path d="M1.53624 31.5581C2.35847 31.5581 3.03121 30.8854 3.03121 30.0631C3.03121 30.0507 3.03121 30.0382 3.03121 30.0382C3.03121 30.0258 3.03121 30.0133 3.03121 30.0008C3.03121 29.1786 2.35847 28.5059 1.53624 28.5059C0.713999 28.5059 0.0412598 29.1786 0.0412598 30.0008C0.0412598 30.0133 0.0412598 30.0258 0.0412598 30.0382C0.0412598 30.0507 0.0412598 30.0631 0.0412598 30.0756C0.0412598 30.8978 0.701541 31.5581 1.53624 31.5581Z" fill="#43587B"/>
<path d="M58.2956 25.5907C57.4733 25.6779 56.8753 26.4129 56.9625 27.2351C57.0373 28.0075 57.6851 28.5806 58.4451 28.5806C58.4949 28.5806 58.5447 28.5806 58.5946 28.5682C59.4168 28.4809 60.0148 27.7459 59.9276 26.9361C59.8529 26.1139 59.1303 25.5159 58.2956 25.5907Z" fill="#43587B"/>
<path d="M1.81033 25.7276C1.91 25.7525 2.00966 25.7649 2.10933 25.7649C2.80698 25.7649 3.42989 25.2791 3.57939 24.569C3.74134 23.7592 3.2181 22.9743 2.40832 22.7999C1.59854 22.638 0.813682 23.1612 0.639268 23.971C0.477312 24.7683 1.00055 25.5532 1.81033 25.7276Z" fill="#43587B"/>
<path d="M26.0166 56.7359C25.2068 56.6114 24.4344 57.172 24.3223 57.9942C24.1977 58.8165 24.7583 59.5764 25.5805 59.6885C25.6553 59.701 25.73 59.701 25.8048 59.701C26.5273 59.701 27.1752 59.1653 27.2748 58.4303C27.387 57.6205 26.8263 56.8605 26.0166 56.7359Z" fill="#43587B"/>
<path d="M20.1362 4.73568C20.3106 4.73568 20.485 4.6983 20.6594 4.63601C21.4318 4.34947 21.8305 3.48986 21.544 2.71746C21.2574 1.94505 20.3978 1.54639 19.6254 1.83293C18.853 2.11947 18.4544 2.97908 18.7409 3.75148C18.9651 4.36193 19.5382 4.73568 20.1362 4.73568Z" fill="#43587B"/>
<path d="M36.8301 3.81385C36.9546 3.85122 37.0792 3.86368 37.2038 3.86368C37.8641 3.86368 38.4745 3.41519 38.6489 2.74245C38.8607 1.94513 38.3749 1.12289 37.5775 0.923565C36.7802 0.711776 35.958 1.19764 35.7586 1.99496C35.5469 2.79228 36.0327 3.60206 36.8301 3.81385Z" fill="#43587B"/>
<path d="M15.8009 52.9736C15.1032 52.5376 14.1813 52.7494 13.7453 53.4595C13.3092 54.1571 13.521 55.079 14.2187 55.5151C14.4678 55.6646 14.7419 55.7393 15.0035 55.7393C15.5019 55.7393 15.9877 55.4902 16.2743 55.0292C16.7228 54.3315 16.4985 53.4096 15.8009 52.9736Z" fill="#43587B"/>
<path d="M14.9662 7.2772C15.2403 7.2772 15.5143 7.20245 15.751 7.05296C16.4487 6.61692 16.6605 5.69502 16.2245 4.99736C15.7884 4.29971 14.8665 4.08792 14.1689 4.52395C13.4712 4.95999 13.2594 5.88189 13.6955 6.57955C13.982 7.02804 14.4679 7.2772 14.9662 7.2772Z" fill="#43587B"/>
<path d="M5.82193 45.125C5.1492 45.5984 4.97478 46.5328 5.46065 47.2055C5.74719 47.6166 6.22059 47.8409 6.68155 47.8409C6.98054 47.8409 7.27954 47.7537 7.54116 47.5668C8.2139 47.0934 8.38831 46.159 7.90244 45.4863C7.42903 44.8136 6.49467 44.6516 5.82193 45.125Z" fill="#43587B"/>
<path d="M31.4233 2.99189C31.4482 2.99189 31.4731 2.99189 31.498 2.99189C32.2953 2.99189 32.9556 2.36898 32.993 1.57166C33.0304 0.749422 32.395 0.0393085 31.5728 0.00193405C30.7505 -0.0354404 30.0404 0.599925 30.003 1.42216C29.9657 2.25686 30.601 2.95451 31.4233 2.99189Z" fill="#43587B"/>
<path d="M52.7142 47.4172C52.0913 46.8815 51.1445 46.9563 50.6088 47.5792C50.0731 48.2021 50.1478 49.1489 50.7707 49.6846C51.0573 49.9213 51.3936 50.0459 51.7424 50.0459C52.166 50.0459 52.5771 49.8715 52.8761 49.5227C53.4118 48.8997 53.3371 47.9654 52.7142 47.4172Z" fill="#43587B"/>
<path d="M51.7051 12.8958C52.0539 12.8958 52.4027 12.7712 52.6768 12.5345C53.2997 11.9988 53.3745 11.0519 52.8388 10.429C52.3031 9.80613 51.3563 9.73138 50.7334 10.2671C50.1105 10.8028 50.0357 11.7496 50.5714 12.3725C50.8704 12.7089 51.2815 12.8958 51.7051 12.8958Z" fill="#43587B"/>
<path d="M31.4855 57.01C30.6633 57.0474 30.0279 57.7575 30.0653 58.5797C30.1027 59.3771 30.7629 60 31.5603 60C31.5852 60 31.6101 60 31.635 60C32.4572 59.9626 33.0926 59.2525 33.0552 58.4302C33.0179 57.608 32.3077 56.9602 31.4855 57.01Z" fill="#43587B"/>
<path d="M58.6069 31.3712C57.7846 31.284 57.0496 31.8945 56.9749 32.7167C56.8876 33.5389 57.4981 34.2739 58.3203 34.3487C58.3702 34.3487 58.42 34.3611 58.4698 34.3611C59.2298 34.3611 59.8776 33.7881 59.9523 33.0157C60.0271 32.181 59.4291 31.446 58.6069 31.3712Z" fill="#43587B"/>
<path d="M9.36006 49.6971C8.78698 50.2951 8.8119 51.2419 9.42235 51.815C9.70888 52.0891 10.0826 52.2261 10.4564 52.2261C10.855 52.2261 11.2412 52.0642 11.5402 51.7652C12.1133 51.1672 12.0759 50.2204 11.4779 49.6473C10.8799 49.0618 9.92067 49.0991 9.36006 49.6971Z" fill="#43587B"/>
<path d="M46.6471 51.3666C45.9993 51.8773 45.8747 52.8117 46.3855 53.4595C46.6845 53.8333 47.1205 54.0326 47.569 54.0326C47.8929 54.0326 48.2168 53.9329 48.4785 53.7211C49.1263 53.2104 49.2509 52.276 48.7401 51.6157C48.2418 50.9679 47.2949 50.8558 46.6471 51.3666Z" fill="#43587B"/>
<path d="M41.9629 5.70739C42.1747 5.80705 42.399 5.85689 42.6232 5.85689C43.1714 5.85689 43.7071 5.54543 43.9687 5.02219C44.33 4.2747 44.031 3.39018 43.2835 3.02889C42.536 2.6676 41.6515 2.9666 41.2778 3.71409C40.904 4.44912 41.2155 5.3461 41.9629 5.70739Z" fill="#43587B"/>
<path d="M25.7298 3.2906C25.8046 3.2906 25.8793 3.2906 25.9541 3.27815C26.7639 3.15356 27.3245 2.39362 27.1999 1.57138C27.0753 0.749144 26.3154 0.200986 25.4931 0.313109C24.6833 0.437691 24.1227 1.19764 24.2473 2.01987C24.3594 2.7549 25.0073 3.2906 25.7298 3.2906Z" fill="#43587B"/>
<path d="M55.8663 21.8782C56.0656 22.5135 56.6511 22.9247 57.2865 22.9247C57.436 22.9247 57.5855 22.8997 57.735 22.8499C58.5198 22.6007 58.9559 21.7661 58.7067 20.9812C58.4576 20.1963 57.6229 19.7603 56.838 20.0095C56.0531 20.2462 55.6171 21.0933 55.8663 21.8782Z" fill="#43587B"/>
<path d="M55.0065 17.6174C55.2556 17.6174 55.5048 17.5551 55.7291 17.4305C56.4516 17.0319 56.7133 16.1224 56.3021 15.3999C55.9035 14.6773 54.994 14.4157 54.2715 14.8268C53.5489 15.2255 53.2873 16.1349 53.6984 16.8575C53.9725 17.3433 54.4832 17.6174 55.0065 17.6174Z" fill="#43587B"/>
<path d="M10.394 10.8153C10.7678 10.8153 11.1415 10.6783 11.4281 10.4042C12.0261 9.8311 12.051 8.88428 11.4779 8.28629C10.9048 7.6883 9.95801 7.66338 9.36002 8.23646C8.76203 8.80953 8.73711 9.75635 9.31019 10.3543C9.60918 10.6658 10.0078 10.8153 10.394 10.8153Z" fill="#43587B"/>
<path d="M36.8925 56.1754C36.0952 56.3872 35.6094 57.197 35.8211 57.9943C35.9956 58.667 36.606 59.1155 37.2663 59.1155C37.3909 59.1155 37.5154 59.1031 37.64 59.0657C38.4373 58.8539 38.9232 58.0441 38.7114 57.2468C38.4996 56.4495 37.6899 55.9636 36.8925 56.1754Z" fill="#43587B"/>
<path d="M57.7597 37.0895C56.9748 36.8403 56.1277 37.2888 55.891 38.0737C55.6418 38.8585 56.0903 39.7057 56.8752 39.9424C57.0247 39.9922 57.1742 40.0047 57.3237 40.0047C57.959 40.0047 58.557 39.5935 58.7563 38.9582C58.9806 38.1733 58.5446 37.3262 57.7597 37.0895Z" fill="#43587B"/>
<path d="M55.7664 42.5088C55.0438 42.1102 54.1344 42.3718 53.7357 43.0943C53.3371 43.8169 53.5987 44.7264 54.3213 45.125C54.5455 45.2496 54.7947 45.3119 55.0438 45.3119C55.5671 45.3119 56.0779 45.0378 56.3519 44.5395C56.7506 43.8169 56.489 42.9075 55.7664 42.5088Z" fill="#43587B"/>
<path d="M42.0127 54.2692C41.2652 54.6305 40.9662 55.5275 41.3275 56.275C41.5891 56.7982 42.1248 57.1097 42.6729 57.1097C42.8972 57.1097 43.1214 57.0598 43.3332 56.9602C44.0807 56.5989 44.3797 55.7019 44.0184 54.9544C43.6447 54.2069 42.7477 53.8955 42.0127 54.2692Z" fill="#43587B"/>
<path d="M20.7217 55.3781C19.9493 55.0916 19.0897 55.4902 18.8031 56.2626C18.5166 57.035 18.9153 57.8946 19.6877 58.1812C19.8621 58.2435 20.0365 58.2808 20.1985 58.2808C20.8089 58.2808 21.382 57.9071 21.6062 57.2966C21.8928 56.5242 21.4941 55.6646 20.7217 55.3781Z" fill="#43587B"/>
<path d="M5.78456 14.9264C6.04618 15.1009 6.34518 15.1881 6.64417 15.1881C7.11758 15.1881 7.57853 14.9638 7.86507 14.5527C8.33847 13.88 8.17652 12.9456 7.49132 12.4722C6.81858 11.9988 5.88422 12.1607 5.41082 12.8459C4.93741 13.5311 5.11182 14.453 5.78456 14.9264Z" fill="#43587B"/>
<path d="M3.24304 20.1215C3.42992 20.2087 3.62925 20.246 3.82858 20.246C4.41411 20.246 4.96227 19.9097 5.19897 19.3366C5.52288 18.5767 5.17406 17.6921 4.41411 17.3682C3.65416 17.0443 2.78209 17.3931 2.44572 18.1531C2.13427 18.913 2.4831 19.7976 3.24304 20.1215Z" fill="#43587B"/>
<path d="M3.59183 35.5073C3.41742 34.6976 2.63255 34.1743 1.82278 34.3487C1.013 34.5107 0.489755 35.308 0.664169 36.1178C0.813666 36.8279 1.43657 37.3138 2.12177 37.3138C2.22144 37.3138 2.3211 37.3013 2.42077 37.2764C3.23054 37.102 3.75379 36.3171 3.59183 35.5073Z" fill="#43587B"/>
<path d="M5.23621 40.7148C4.9123 39.9549 4.02777 39.6061 3.26782 39.93C2.50788 40.2539 2.15905 41.1384 2.48296 41.8984C2.73212 42.459 3.28028 42.7954 3.85336 42.7954C4.05269 42.7954 4.25202 42.758 4.45135 42.6708C5.21129 42.3593 5.56012 41.4748 5.23621 40.7148Z" fill="#43587B"/>
<path d="M46.5973 8.61021C46.8714 8.822 47.1953 8.92166 47.5068 8.92166C47.9553 8.92166 48.3913 8.72233 48.6903 8.33613C49.1886 7.68831 49.0765 6.74149 48.4287 6.24316C47.7808 5.73238 46.834 5.85696 46.3357 6.50478C45.8249 7.15261 45.9495 8.09942 46.5973 8.61021Z" fill="#43587B"/>
<path d="M30.0654 27.6089C34.0769 27.6089 37.3534 24.3448 37.3534 20.3209C37.3534 16.2969 34.0893 13.0328 30.0654 13.0328C26.0414 13.0328 22.7773 16.2969 22.7773 20.3209C22.7773 24.3448 26.0538 27.6089 30.0654 27.6089ZM30.0654 16.0228C32.4324 16.0228 34.3634 17.9538 34.3634 20.3209C34.3634 22.6879 32.4324 24.6189 30.0654 24.6189C27.6983 24.6189 25.7673 22.6879 25.7673 20.3209C25.7673 17.9538 27.6983 16.0228 30.0654 16.0228Z" fill="#43587B"/>
<path d="M40.8043 35.0962C38.3127 31.7325 34.6998 30.0258 30.0654 30.0258C25.431 30.0258 21.8181 31.7325 19.3265 35.0962C17.4578 37.6252 16.2618 41.0637 15.7759 45.2994C15.6887 46.1217 16.2743 46.8567 17.0965 46.9563C17.9187 47.056 18.6538 46.458 18.7534 45.6358C19.7002 37.2639 23.5124 33.0157 30.0654 33.0157C36.6184 33.0157 40.4306 37.2639 41.3774 45.6358C41.4646 46.3957 42.1124 46.9688 42.8599 46.9688C42.9098 46.9688 42.972 46.9688 43.0343 46.9563C43.8566 46.8691 44.4421 46.1217 44.3549 45.2994C43.869 41.0637 42.673 37.6252 40.8043 35.0962Z" fill="#43587B"/>
</svg>
