<svg width="16" height="16" viewBox="0 0 16 16" fill="none" xmlns="http://www.w3.org/2000/svg">
<path d="M10.3475 14.5901C12.1078 13.9625 13.5183 12.6871 14.3193 10.9987C15.1203 9.31032 15.2159 7.411 14.5883 5.65074C13.9608 3.89047 12.6854 2.47987 10.997 1.67888C9.30854 0.877928 7.40927 0.782395 5.64896 1.40989C5.50079 1.46271 5.42363 1.62568 5.47635 1.77375C5.52917 1.92191 5.69205 1.99917 5.84021 1.94635C7.4572 1.36988 9.2019 1.45763 10.7529 2.19342C12.3039 2.92921 13.4755 4.22496 14.0519 5.84195C14.6284 7.45894 14.5406 9.20369 13.8048 10.7546C13.069 12.3056 11.7733 13.4772 10.1563 14.0537C8.53929 14.6301 6.79459 14.5424 5.24362 13.8066C3.69264 13.0708 2.521 11.7751 1.94457 10.1581C1.29852 8.34569 1.49405 6.35753 2.48104 4.70348C2.56167 4.56831 2.51748 4.39362 2.38242 4.31304C2.24735 4.23245 2.07256 4.27659 1.99198 4.41166C1.33478 5.51301 0.999965 6.7502 1.00001 7.99668C1.00001 8.788 1.13503 9.58321 1.4081 10.3493C2.03564 12.1096 3.31108 13.5201 4.99949 14.3211C6.68796 15.1221 8.58723 15.2176 10.3475 14.5901Z" fill="white" stroke="#43587B"/>
<path d="M7.99867 11.1323C8.1559 11.1323 8.28342 11.0048 8.28342 10.8476L8.28342 3.75594C8.28342 3.59866 8.1559 3.47119 7.99867 3.47119C7.84144 3.47119 7.71392 3.59866 7.71392 3.75594L7.71392 10.8476C7.71392 11.0048 7.84144 11.1323 7.99867 11.1323Z" fill="white" stroke="#43587B"/>
<path d="M4.78669 8.62152C4.67549 8.51028 4.4952 8.51028 4.384 8.62152C4.32843 8.67709 4.30062 8.74999 4.30062 8.82283C4.30062 8.89568 4.32843 8.96858 4.384 9.02415L7.56369 12.2038C7.67489 12.3151 7.85518 12.3151 7.96638 12.2038L11.1461 9.02415C11.2573 8.913 11.2573 8.73262 11.1461 8.62152C11.0349 8.51028 10.8546 8.51028 10.7434 8.62152L7.76506 11.5998L4.78669 8.62152Z" fill="white" stroke="#43587B"/>
</svg>
