<svg width="16" height="16" viewBox="0 0 16 16" fill="none" xmlns="http://www.w3.org/2000/svg">
<path d="M5.65077 1.40992C3.8905 2.03746 2.47995 3.31289 1.67896 5.00131C0.877911 6.68968 0.782378 8.589 1.40992 10.3493C2.03745 12.1095 3.31289 13.5201 5.0013 14.3211C6.68972 15.1221 8.58899 15.2176 10.3493 14.5901C10.4975 14.5373 10.5746 14.3743 10.5219 14.2263C10.4691 14.0781 10.3062 14.0008 10.158 14.0536C8.54106 14.6301 6.79636 14.5424 5.24538 13.8066C3.6944 13.0708 2.52276 11.775 1.94633 10.1581C1.36991 8.54106 1.45771 6.79631 2.19345 5.24539C2.92924 3.69436 4.22499 2.52276 5.84198 1.94629C7.45897 1.36986 9.20367 1.45761 10.7546 2.1934C12.3056 2.92919 13.4773 4.22494 14.0537 5.84193C14.6997 7.65431 14.5042 9.64247 13.5172 11.2965C13.4366 11.4317 13.4808 11.6064 13.6158 11.687C13.7509 11.7675 13.9257 11.7234 14.0063 11.5883C14.6635 10.487 14.9983 9.2498 14.9982 8.00332C14.9982 7.212 14.8632 6.41679 14.5902 5.65072C13.9626 3.89041 12.6872 2.47991 10.9988 1.67891C9.3103 0.877915 7.41103 0.782383 5.65077 1.40992Z" fill="white" stroke="#43587B"/>
<path d="M7.99959 4.86765C7.84236 4.86765 7.71484 4.99517 7.71484 5.1524L7.71484 12.2441C7.71484 12.4013 7.84236 12.5288 7.99959 12.5288C8.15682 12.5288 8.28434 12.4013 8.28434 12.2441L8.28434 5.1524C8.28434 4.99517 8.15682 4.86765 7.99959 4.86765Z" fill="white" stroke="#43587B"/>
<path d="M11.2116 7.37848C11.3228 7.48972 11.5031 7.48972 11.6143 7.37848C11.6698 7.32291 11.6976 7.25001 11.6976 7.17717C11.6976 7.10432 11.6698 7.03142 11.6143 6.97585L8.43457 3.79616C8.32337 3.68492 8.14308 3.68492 8.03188 3.79616L4.85219 6.97585C4.741 7.087 4.741 7.26738 4.85219 7.37848C4.96339 7.48972 5.14368 7.48972 5.25488 7.37848L8.2332 4.40016L11.2116 7.37848Z" fill="white" stroke="#43587B"/>
</svg>
